<svg height="73" viewBox="0 0 73 73" width="73" xmlns="http://www.w3.org/2000/svg"><g fill="none" fill-rule="nonzero"><rect fill="#fff" height="71" rx="14" stroke="#000" stroke-width="2" width="71" x="1" y="1"/><g transform="matrix(.8660254 .5 -.5 .8660254 27.92647 4.000001)"><g fill="#805333" transform="translate(3.17154)"><path d="m19.7910621 10.7047868c-.3878606 0-.7329055-.2742449-.8078098-.6686352-.4158449-2.17716893-2.2191452-8.38918957-4.9554379-8.38918957-.4553958 0-.823481-.36892472-.823481-.82348101 0-.4545563.3680852-.82348102.823481-.82348102 4.5890317 0 6.3832838 8.73180912 6.5727367 9.72729954.0856316.44634756-.2082956.87777036-.6546432.96256236-.0519573.009981-.1038213.0149249-.1548458.0149249"/><path d="m21.4396099 10.7047868c-.0510244 0-.103728-.0049439-.155592-.0148316-.4463476-.0856316-.7394352-.5171476-.6538036-.96340191.1909454-.9955837 1.9967642-9.72655329 6.5726434-9.72655329.4553958 0 .823481.36892472.823481.82348102 0 .45455629-.3680852.82348101-.823481.82348101-2.7313489 0-4.5380072 6.21286017-4.9554379 8.38918957-.0749976.3943903-.4207887.6686352-.8078099.6686352"/><path d="m17.3207124 17.2922618c-.1836695 0-.3672457-.0609122-.5204124-.1860948l-9.05782478-7.41095598c-.07826241-.06427033-.1441185-.14085369-.19346393-.22891056l-3.29373751-5.76408727c-.22648526-.39439032-.08889639-.8975458.30633345-1.12319154.39364407-.22648526.8975458-.0888964 1.12319154.30633344l3.21799366 5.63153556 8.94010467 7.31459715c.3524141.288237.4042781.8069704.1161343 1.1585449-.1631477.1993406-.3995207.3022291-.638319.3022291"/><path d="m23.9099597 17.2922618c-.2387983 0-.4751713-.1028885-.6381325-.3022291-.288237-.3515745-.236373-.8704011.1161344-1.1585449l8.9401046-7.31459715 3.2179937-5.63153556c.2248062-.39522984.7279617-.53272542 1.1231915-.30633344.3952299.22564574.5327255.72870794.3063335 1.12319154l-3.2937375 5.76408727c-.0494387.08815015-.1152948.16473351-.193464.22891056l-9.0578247 7.41095598c-.1533533.1251826-.3370228.1860948-.520599.1860948"/><path d="m6.61676511 47.7600333c-.09635885 0-.19346394-.0172569-.28898326-.0527035-.4257326-.1597897-.64149059-.6340282-.48254047-1.0606003l1.52093996-4.0554668c.6241404-1.6617003 1.59994861-3.1545628 2.90018666-4.437544l.18283-.1819904c1.5472451-1.5530285 2.5543023-3.4913991 2.9100744-5.6051372.2429027-1.4426775.8712407-3.6025895 2.4867672-5.6957126.2775097-.3598765.7921387-.4281579 1.1552801-.1490624.3598765.2775098.4265721.7946573.1490623 1.1544406-1.4072309 1.8239153-1.9548812 3.705478-2.1664416 4.9637398-.4133263 2.4522533-1.5784941 4.6977036-3.3694813 6.4944743l-.193464.1934639c-1.1272958 1.1124643-1.97297764 2.4052399-2.51232599 3.8413878l-1.52010043 4.0563063c-.12452959.3302133-.43907172.5344045-.77180357.5344045"/><path d="m.85193159 34.58499c-.35819745 0-.6875712-.236373-.79129921-.5978353-.12434302-.4372061.12844737-.8926019.566493-1.0177844l5.61754347-1.6048925 9.75948135-7.3195411c.3639808-.2749911.8802889-.1992473 1.1528548.163894.2734054.3639809.1992473.8802889-.1647336 1.1528548l-9.88130575 7.410956c-.0806877.0609122-.17042363.1062466-.26846152.1333912l-5.76418055 1.6468688c-.07490431.0213612-.15064815.0320885-.22639199.0320885"/><path d="m34.6138137 47.7600333c-.3326386 0-.6471807-.2041912-.7715237-.5344045l-1.52094-4.0563063c-.5376693-1.4344688-1.3833511-2.728084-2.5131655-3.8429736l-.195143-.1943034c-1.7877225-1.7942521-2.9528903-4.0397957-3.3662165-6.492049-.2124932-1.2582618-.7600503-3.1405708-2.1664417-4.9637398-.2775097-.3598765-.2108141-.8769308.1499019-1.1544406.3598766-.2775097.8769308-.2108141 1.1544406.1490624 1.6139407 2.0923768 2.243025 4.2522888 2.4867671 5.6949664.3557722 2.1145776 1.3628294 4.0529482 2.910914 5.6068162l.1803114.1794718c1.3035029 1.2870855 2.2784716 2.779948 2.9010262 4.4392231l1.5216862 4.0554668c.1589501.4265721-.0568079.9008106-.4817009 1.0606002-.0963589.0353534-.1935572.0526103-.2899161.0526103"/><path d="m40.3787405 34.58499c-.0757438 0-.1514877-.0107273-.2264853-.0320885l-5.7640872-1.6468688c-.0980379-.0271446-.1877738-.072479-.2684616-.1333912l-9.8813057-7.410956c-.3639809-.2725659-.4380457-.7888739-.1647336-1.1528548.2734054-.3631413.788874-.4372061 1.1528548-.163894l9.7594813 7.3195411 5.6175435 1.6048925c.4380456.1251825.690836.580485.566493 1.0177844-.103728.3615556-.4331017.5978353-.7912992.5978353"/></g><g fill="#f0c419" transform="translate(19.588923 13.152563)"><path d="m8.31512474 16.647693v-4.9579565c0-.9864422-.79960118-1.78604337-1.78604338-1.78604337h-4.66235027c-.9864422 0-1.78604338.79960117-1.78604338 1.78604337v4.9579565c0 4.1550904 1.45750916 8.1792149 4.11721851 11.3717429 2.65980264-3.1924347 4.11721852-7.2166525 4.11721852-11.3717429"/><path d="m6.66825599.02248062h-4.94060625l-.82348102 3.2937375v3.2937375c0 1.81897144 1.47476607 3.29373751 3.2937375 3.29373751 1.81897144 0 3.29373751-1.47476607 3.29373751-3.29373751v-3.2937375z"/></g><path d="m26.2571791 13.1750433h-4.9406062c-.9091126 0-1.6468688-.7378495-1.6468688-1.6468688s.7378494-1.64686872 1.6468688-1.64686872h4.9406062c.9091126 0 1.6468688.73784942 1.6468688 1.64686872s-.7377562 1.6468688-1.6468688 1.6468688" fill="#95a5a5"/><g fill="#dbcb95" transform="translate(0 13.992088)"><path d="m6.49456754.00643636s-3.30698335.2387983-5.39852065 2.35337591c-1.17253697 1.18662234-1.43773368 3.08292338-.45539582 4.43176066.57554121.79045968 1.59257945 1.44930046 3.3835667 1.44930046h3.2937375s.92058611.22975009 1.63698101.83085019c1.62709322 1.36198982 3.91871742 1.71934772 5.86865482.88523276 1.6229889-.6933546 4.2028501-2.77089982 5.6694075-5.00982045l-1.0580817-.35241405c-2.0125287-.67106054-3.9171317-1.60983636-5.7393679-2.69515598-1.5060151-.89679956-3.91787795-1.8931295-7.20098146-1.8931295"/><path d="m41.0791844.00643636s3.3069834.2387983 5.3976812 2.35337591c1.1733764 1.18662234 1.4385732 3.08292338.4553958 4.43176066-.5756345.79045968-1.59174 1.44930046-3.3827272 1.44930046h-3.2937375s-.9205861.22975009-1.6378205.83085019c-1.6263471 1.36198982-3.9179712 1.71934772-5.8686548.88523276-1.6221494-.6933546-4.2020106-2.77089982-5.668568-5.00982045l1.0573354-.35241405c2.0132749-.67106054 3.9179712-1.60983636 5.7402075-2.69515598 1.5050822-.89679956 3.9169451-1.8931295 7.2008881-1.8931295"/></g><g fill="#000" transform="translate(19.588923 26.305125)"><path d="m.08068771 1.69192327h8.23443703v-1.64686875h-8.23443703z"/><path d="m.24877932 5.80914179h7.89844037c.07163949-.54513175.1177201-1.09436784.13917463-1.64686875h-8.17678963c.02061501.55250091.06753514 1.101737.13917463 1.64686875"/><path d="m.75463994 8.30962119c.15400625.54839656.3392615 1.08615914.54513175 1.61645928h5.79617579c.20587025-.53030014.3911255-1.06796944.54513174-1.61645928-.05018495-.00988775-.09635884-.03050276-.14906237-.03050276h-6.58756828c-.05344978 0-.09878415.02061501-.14980863.03050276"/></g></g></g></svg>